<?xml version="1.0" ?><svg style="enable-background:new 0 0 96 96;" version="1.1" viewBox="0 0 96 96" xml:space="preserve" xmlns="http://www.w3.org/2000/svg" xmlns:xlink="http://www.w3.org/1999/xlink"><g id="Layer_2"><g id="XMLID_205_"><g id="XMLID_213_"><rect height="55.63" id="XMLID_214_" style="fill:#F8CB00;" width="9.834" x="52.911" y="30.85"/></g><rect height="23.877" id="XMLID_224_" style="fill:#C8A300;" width="9.985" x="52.855" y="30.911"/><g id="XMLID_212_"><path d="M64.264,88H51.391V29.331h12.873V88z M54.43,84.961h6.795V32.37H54.43V84.961z" id="XMLID_219_" style="fill:#004363;"/></g><g id="XMLID_209_"><polygon id="XMLID_230_" points="70,17 70,35 48.913,35 48.87,34.709 26,39.129 26,9.929 48.87,16.341      48.913,17    " style="fill:#E80029;"/></g><polygon id="XMLID_227_" points="48.839,15.699 48.839,34.402 25.938,39.129 25.938,9.929   " style="fill:#BB0021;"/><g id="XMLID_207_"><path d="M24,41.008V8l25.093,7H71v21H49.073L24,41.008z M27,11.856V37.25L48.752,33H69V18     H48.733L27,11.856z" id="XMLID_215_" style="fill:#004363;"/></g></g></g></svg>