<svg xmlns="http://www.w3.org/2000/svg" xmlns:xlink="http://www.w3.org/1999/xlink" version="1.1" x="0px" y="0px" viewBox="0 0 100 125" enable-background="new 0 0 100 100" xml:space="preserve"><g><path d="M75.046,41.475c0.105-0.778,0.164-1.426,0.164-2.399c0-12.078-8.736-21.137-21.257-22.659   c0.904-0.943,1.464-2.221,1.464-3.629c0-2.896-2.356-5.253-5.252-5.253c-2.897,0-5.254,2.356-5.254,5.253   c0,1.408,0.561,2.687,1.465,3.63C33.855,17.941,25.119,27,25.119,39.075c0,0.979,0.059,1.628,0.164,2.403   c-3.061,1.649-3.846,4.72-3.846,7.447l0.027,0.953c0.13,2.482,1.025,5.294,4.02,6.807v22.433c0.002,0.086,0.065,2.173,1.303,4.62   c1.137,2.242,3.521,5.244,8.424,6.804c8.882,2.819,14.867,3.116,15.116,3.126l0.045,0.004l0.044-0.004   c0.241-0.01,5.963-0.309,14.846-3.126c4.902-1.56,7.286-4.562,8.424-6.804c1.239-2.447,1.3-4.533,1.304-4.643V56.688   c2.413-1.203,3.713-3.392,3.879-6.557l0.026-1.232C78.895,46.189,78.107,43.122,75.046,41.475z M71.568,40.428l1.622-2.746   c0.028,0.46,0.049,0.923,0.049,1.393c0,0.664-0.028,1.143-0.087,1.656C72.671,40.599,72.133,40.504,71.568,40.428z M70.846,40.339   l-1.854-3.405h3.878l-2.013,3.406C70.854,40.34,70.851,40.34,70.846,40.339z M65.918,40.275L64.1,36.934h3.879l-1.975,3.341H65.918   z M60.693,40.275l-1.819-3.341h3.88l-1.976,3.341H60.693z M55.47,40.275l-1.821-3.341h3.882l-1.976,3.341H55.47z M50.245,40.275   l-1.818-3.341h3.878l-1.973,3.341H50.245z M45.083,40.275l-1.818-3.341h3.878l-1.975,3.341H45.083z M39.859,40.275l-1.82-3.341   h3.88l-1.974,3.341H39.859z M34.635,40.275l-1.819-3.341h3.878l-1.974,3.341H34.635z M29.447,40.344l-1.856-3.41h3.879   l-2.014,3.408C29.453,40.343,29.45,40.344,29.447,40.344z M32.146,37.079l1.739,3.197h-2.91c-0.257,0-0.49,0.018-0.734,0.029   L32.146,37.079z M37.371,37.079l1.741,3.197h-3.629L37.371,37.079z M42.596,37.079l1.739,3.197h-3.627L42.596,37.079z    M47.788,37.134l1.709,3.141h-3.565L47.788,37.134z M52.982,37.08l1.738,3.195h-3.627L52.982,37.08z M58.206,37.079l1.74,3.197   h-3.628L58.206,37.079z M63.43,37.078l1.741,3.198h-3.63L63.43,37.078z M68.481,37.373l1.597,2.931   c-0.24-0.01-0.469-0.028-0.722-0.028h-2.59L68.481,37.373z M50.165,9.504c1.81,0,3.283,1.473,3.283,3.283   c0,1.579-1.121,2.901-2.608,3.212l1.302-2.415c0.085-0.16,0.024-0.359-0.135-0.445c-0.159-0.085-0.357-0.025-0.445,0.133   l-1.477,2.743l-1.476-2.743c-0.087-0.159-0.285-0.218-0.446-0.133c-0.159,0.086-0.219,0.285-0.134,0.445l1.268,2.355   c-1.388-0.383-2.415-1.644-2.415-3.152C46.881,10.977,48.354,9.504,50.165,9.504z M50.167,18.159   c12.315,0,21.513,7.467,22.888,18.117H27.274C28.648,25.625,37.848,18.159,50.167,18.159z M27.089,39.075   c0-0.533,0.025-1.056,0.062-1.576l1.595,2.93c-0.559,0.077-1.092,0.171-1.573,0.302C27.117,40.222,27.089,39.743,27.089,39.075z    M73.02,79.066c-0.009,0.286-0.309,7.039-8.355,9.595c-8.203,2.605-13.739,3.003-14.294,3.035   c-0.571-0.032-6.351-0.427-14.563-3.035c-8.047-2.556-8.346-9.309-8.354-9.566V57.396c0.611,0.151,1.282,0.261,2.018,0.325   c-0.021,0.042-0.035,0.087-0.037,0.137c-0.151,0.109-0.482,0.3-0.994,0.326c-0.181,0.01-0.32,0.164-0.311,0.345   c0.009,0.175,0.154,0.312,0.328,0.312c0.005,0,0.011,0,0.017-0.002c0.395-0.02,0.712-0.12,0.957-0.23v1.271   c-0.152,0.109-0.481,0.299-0.991,0.324c-0.181,0.01-0.32,0.164-0.311,0.345c0.009,0.175,0.154,0.312,0.328,0.312   c0.005,0,0.011,0,0.017-0.002c0.395-0.02,0.712-0.119,0.957-0.23v1.586c-0.152,0.108-0.481,0.297-0.991,0.325   c-0.181,0.009-0.32,0.164-0.311,0.344c0.009,0.175,0.154,0.312,0.328,0.312c0.005,0,0.011,0,0.017-0.002   c0.395-0.02,0.712-0.119,0.957-0.23v1.587c-0.152,0.108-0.481,0.297-0.991,0.324c-0.181,0.009-0.32,0.164-0.311,0.344   c0.009,0.177,0.154,0.312,0.328,0.312c0.005,0,0.011,0,0.017-0.002c0.395-0.02,0.712-0.119,0.957-0.229v1.586   c-0.152,0.106-0.481,0.296-0.991,0.322c-0.181,0.011-0.32,0.165-0.311,0.347c0.009,0.175,0.154,0.31,0.328,0.31   c0.005,0,0.011,0,0.017,0c0.395-0.021,0.712-0.119,0.957-0.23v1.586c-0.152,0.108-0.481,0.298-0.991,0.324   c-0.181,0.009-0.32,0.163-0.311,0.345c0.009,0.174,0.154,0.311,0.328,0.311c0.005,0,0.011,0,0.017,0   c0.395-0.02,0.712-0.119,0.957-0.229v1.585c-0.152,0.106-0.481,0.297-0.991,0.324c-0.181,0.01-0.32,0.165-0.311,0.345   c0.009,0.175,0.154,0.311,0.328,0.311c0.005,0,0.011,0,0.017,0c0.395-0.021,0.712-0.12,0.957-0.23v1.586   c-0.152,0.106-0.481,0.298-0.991,0.325c-0.181,0.009-0.32,0.164-0.311,0.344c0.009,0.175,0.154,0.311,0.328,0.311   c0.005,0,0.011,0,0.017,0c0.395-0.02,0.712-0.119,0.957-0.23v0.862c0,0.24,0.028,0.461,0.052,0.684   c-0.102,0.087-0.444,0.332-1.043,0.364c-0.181,0.01-0.32,0.164-0.311,0.345c0.009,0.176,0.154,0.311,0.328,0.311   c0.005,0,0.011,0,0.017,0c0.502-0.026,0.884-0.179,1.14-0.321c0.185,0.714,0.504,1.325,0.994,1.802   c0.026,0.022,0.055,0.041,0.08,0.065c-0.409,0.354-1.353,1.026-1.904,0.752c-0.159-0.083-0.358-0.016-0.44,0.146   c-0.082,0.162-0.016,0.361,0.146,0.442c0.188,0.093,0.386,0.132,0.585,0.132c0.956,0,1.957-0.889,2.145-1.064   c1.276,0.816,3.034,0.973,4.638,0.973c0.501,0,0.986-0.015,1.437-0.026c0.391-0.014,0.758-0.026,1.087-0.026   c1.541,0,2.814-0.104,3.784-0.467c0.124,0.048,1.334,0.5,2.685,0.5c0.89,0,1.836-0.197,2.573-0.832   c0.386,0.809,1.413,1.384,2.633,1.384c1.22,0,2.247-0.575,2.633-1.384c0.733,0.626,1.682,0.823,2.583,0.823   c1.418,0,2.707-0.486,2.806-0.524c0.024-0.008,0.044-0.026,0.065-0.042c0.99,0.417,2.315,0.542,3.947,0.542   c0.329,0,0.696,0.013,1.088,0.026c0.45,0.012,0.937,0.026,1.435,0.026c1.653,0,3.474-0.161,4.758-1.045   c0.007,0.011,0.01,0.022,0.02,0.031c0.04,0.045,0.934,1.021,2.359,1.021c0.097,0,0.193-0.005,0.294-0.015   c0.18-0.016,0.312-0.177,0.297-0.356c-0.019-0.182-0.176-0.309-0.357-0.298c-1.261,0.116-2.098-0.781-2.106-0.791   c-0.001-0.001-0.003-0.001-0.005-0.003c0.507-0.493,0.832-1.135,1.01-1.886c0.242,0.162,0.678,0.385,1.293,0.416   c0.007,0,0.013,0,0.019,0c0.173,0,0.319-0.135,0.327-0.311c0.01-0.181-0.131-0.335-0.311-0.345   c-0.698-0.037-1.07-0.381-1.089-0.399c-0.035-0.037-0.079-0.058-0.125-0.074c0.019-0.189,0.044-0.373,0.044-0.574v-0.95   c0.255,0.142,0.638,0.294,1.135,0.318c0.007,0,0.013,0,0.019,0c0.173,0,0.319-0.136,0.327-0.311c0.01-0.18-0.131-0.335-0.311-0.344   c-0.698-0.038-1.07-0.383-1.089-0.401c-0.023-0.023-0.053-0.038-0.081-0.053v-1.546c0.255,0.144,0.638,0.292,1.135,0.319   c0.007,0,0.013,0,0.019,0c0.173,0,0.319-0.136,0.327-0.311c0.01-0.18-0.131-0.335-0.311-0.345c-0.698-0.037-1.07-0.382-1.089-0.401   c-0.023-0.022-0.053-0.037-0.081-0.051v-1.547c0.255,0.143,0.638,0.293,1.135,0.319c0.007,0,0.013,0,0.019,0   c0.173,0,0.319-0.137,0.327-0.311c0.01-0.182-0.131-0.336-0.311-0.345c-0.698-0.036-1.07-0.381-1.089-0.401   c-0.023-0.023-0.053-0.037-0.081-0.051v-1.547c0.255,0.143,0.638,0.292,1.135,0.319c0.007,0,0.013,0,0.019,0   c0.173,0,0.319-0.135,0.327-0.31c0.01-0.182-0.131-0.336-0.311-0.347c-0.698-0.036-1.07-0.38-1.089-0.399   c-0.023-0.023-0.053-0.037-0.081-0.052v-1.547c0.255,0.144,0.636,0.294,1.135,0.319c0.007,0.002,0.013,0.002,0.019,0.002   c0.173,0,0.319-0.136,0.327-0.312c0.01-0.18-0.131-0.335-0.311-0.344c-0.7-0.038-1.072-0.386-1.089-0.401   c-0.023-0.022-0.053-0.038-0.081-0.052v-1.547c0.255,0.144,0.638,0.295,1.135,0.319c0.007,0.002,0.013,0.002,0.019,0.002   c0.173,0,0.319-0.138,0.327-0.312c0.01-0.18-0.131-0.335-0.311-0.344c-0.698-0.038-1.07-0.383-1.089-0.4   c-0.023-0.024-0.053-0.038-0.081-0.053v-1.547c0.255,0.144,0.638,0.293,1.135,0.319c0.007,0.002,0.013,0.002,0.019,0.002   c0.173,0,0.319-0.138,0.327-0.312c0.01-0.181-0.131-0.335-0.311-0.345c-0.698-0.037-1.07-0.381-1.089-0.401   c-0.023-0.022-0.053-0.037-0.081-0.051V58.52c0.255,0.146,0.638,0.295,1.135,0.32c0.007,0.002,0.013,0.002,0.019,0.002   c0.173,0,0.319-0.138,0.327-0.312c0.01-0.181-0.131-0.335-0.311-0.345c-0.698-0.037-1.07-0.381-1.089-0.4   c-0.033-0.035-0.075-0.056-0.118-0.072c0.721-0.064,1.394-0.172,2.016-0.324L73.02,79.066z M53.104,62.168   c-0.01-0.017-0.017-0.034-0.031-0.05l-0.18-0.179c-0.13-0.129-0.337-0.129-0.465,0c-0.129,0.129-0.129,0.336,0,0.464l0.181,0.18   c0.063,0.064,0.147,0.098,0.231,0.098s0.167-0.033,0.232-0.098c0.015-0.014,0.021-0.031,0.031-0.049v4.111   c0,0.644,0.118,1.3,0.234,1.935c0.044,0.26,0.091,0.515,0.126,0.763c-0.356,0.055-0.881,0.213-1.216,0.672   c-0.346,0.469-0.392,1.127-0.168,1.937c-0.485,0.125-1.097,0.189-1.847,0.189c-0.728,0-1.325-0.061-1.802-0.178   c0.227-0.817,0.183-1.478-0.164-1.948c-0.354-0.479-0.908-0.632-1.263-0.679c0.035-0.247,0.08-0.498,0.126-0.756   c0.114-0.635,0.231-1.291,0.231-1.935v-4.272c0.055,0.035,0.116,0.06,0.18,0.06c0.084,0,0.167-0.032,0.231-0.098   c0.128-0.128,0.128-0.334,0-0.463l-0.179-0.18c-0.063-0.062-0.148-0.095-0.232-0.095v-3.809h5.742V62.168z M53.198,71.342   c-0.125,0.149-0.296,0.277-0.505,0.384c-0.149-0.574-0.13-1.031,0.08-1.318c0.194-0.268,0.52-0.371,0.755-0.41   C53.554,70.53,53.485,70.999,53.198,71.342z M46.939,69.985c0.238,0.036,0.592,0.136,0.8,0.42c0.257,0.351,0.207,0.878,0.083,1.343   c-0.23-0.112-0.418-0.246-0.553-0.406C46.98,70.997,46.912,70.524,46.939,69.985z M46.706,66.646c0,0.585-0.113,1.213-0.222,1.819   c-0.226,1.253-0.438,2.439,0.28,3.299c0.59,0.706,1.692,1.034,3.469,1.034c0.951,0,1.702-0.098,2.292-0.295   c0.021-0.002,0.045-0.004,0.066-0.011c0.021-0.008,0.035-0.021,0.055-0.031c0.452-0.168,0.806-0.396,1.057-0.697   c0.484-0.578,0.542-1.307,0.461-2.104c0-0.002,0.002-0.007,0.002-0.008c0-0.018-0.007-0.032-0.008-0.049   c-0.042-0.367-0.105-0.75-0.176-1.139c-0.108-0.606-0.22-1.234-0.22-1.819v-8.856h15.594c0.359,0,0.709-0.01,1.048-0.028   c-0.013,0.036-0.021,0.069-0.021,0.108v17.633c0,1.186-0.319,2.075-0.977,2.713c-1.42,1.376-4.186,1.295-6.21,1.23   c-0.398-0.012-0.771-0.022-1.106-0.022c-2.737,0-4.541-0.323-5.076-1.931c-0.617-1.85-2.105-2.679-3.306-2.679h-3.234h-0.479   h-3.233c-1.2,0-2.688,0.829-3.305,2.679c-0.536,1.607-2.339,1.931-5.077,1.931c-0.334,0-0.708,0.011-1.106,0.022   c-2.022,0.062-4.789,0.146-6.208-1.23c-0.659-0.638-0.977-1.527-0.977-2.713V57.869c0-0.039-0.01-0.079-0.023-0.112   c0.298,0.014,0.591,0.032,0.91,0.032h15.73V66.646z M49.997,77.71c0.023,0.002,0.047-0.006,0.07-0.01   c0.033,0.01,0.067,0.015,0.106,0.013c0.011,0,1.395-0.101,1.875,0.801c0.043,0.071,0.096,0.128,0.141,0.194   c-0.102,0.724-1.028,1.3-2.133,1.3c-1.105,0-2.033-0.578-2.133-1.3c0.048-0.071,0.102-0.131,0.147-0.208   C48.545,77.612,49.984,77.71,49.997,77.71z M52.62,78.189c-0.678-1.269-2.425-1.137-2.501-1.131c-0.01,0.002-0.02,0.008-0.028,0.01   c-0.015-0.004-0.027-0.012-0.043-0.014c-0.079-0.007-1.879-0.134-2.548,1.123c-1.016,1.703-3.41,1.3-4.521,1   c0.504-0.351,0.883-0.82,1.103-1.479c0.586-1.758,1.962-2.229,2.682-2.229h3.233h0.479h3.234c0.72,0,2.095,0.471,2.682,2.229   c0.204,0.616,0.555,1.064,1.01,1.412C56.347,79.415,53.685,79.977,52.62,78.189z M76.901,50.06   c-0.212,3.983-2.537,5.759-7.545,5.759h-38.38c-4.932,0-7.329-1.921-7.545-6.02l-0.025-0.9c0-4.539,2.405-6.654,7.57-6.654h38.38   c5.163,0,7.569,2.115,7.569,6.632L76.901,50.06z"/><path d="M45.495,46.526v5.393l4.671,2.695l4.671-2.695v-5.393l-4.671-2.696L45.495,46.526z M46.357,51.658l1.617-2.264l1.068,1.349   l2.176-2.91l2.843,3.773l-3.896,2.25L46.357,51.658z M54.18,50.672l-2.964-3.932l-2.188,2.928l-1.081-1.365l-1.794,2.512v-3.909   l4.014-2.318l4.014,2.318V50.672z"/><path d="M41.468,23.368c0.065,0.064,0.149,0.097,0.233,0.097c0.083,0,0.168-0.033,0.231-0.097l0.927-0.927l0.926,0.927   c0.063,0.064,0.147,0.097,0.231,0.097s0.169-0.033,0.232-0.097c0.128-0.128,0.128-0.335,0-0.464l-0.926-0.926l0.926-0.927   c0.128-0.128,0.128-0.336,0-0.464c-0.127-0.129-0.336-0.129-0.463,0l-0.926,0.926l-0.927-0.926c-0.128-0.129-0.336-0.129-0.464,0   c-0.128,0.128-0.128,0.336,0,0.464l0.926,0.927l-0.926,0.926C41.34,23.033,41.34,23.24,41.468,23.368z"/><path d="M48.791,22.918c0.065,0.064,0.148,0.096,0.233,0.096c0.084,0,0.167-0.032,0.231-0.096l0.926-0.926l0.926,0.926   c0.064,0.064,0.148,0.096,0.232,0.096c0.083,0,0.169-0.032,0.232-0.096c0.128-0.127,0.128-0.335,0-0.463l-0.927-0.927l0.927-0.926   c0.128-0.128,0.128-0.336,0-0.464c-0.129-0.128-0.336-0.128-0.465,0l-0.926,0.926l-0.926-0.926c-0.128-0.128-0.336-0.128-0.464,0   c-0.128,0.128-0.128,0.336,0,0.464l0.926,0.926l-0.926,0.927C48.663,22.583,48.663,22.791,48.791,22.918z"/><path d="M55.546,23.429c0.064,0.064,0.147,0.096,0.232,0.096c0.083,0,0.169-0.031,0.232-0.096l0.926-0.926l0.926,0.926   c0.063,0.064,0.148,0.096,0.232,0.096s0.168-0.031,0.232-0.096c0.128-0.128,0.128-0.336,0-0.465l-0.926-0.926l0.926-0.926   c0.128-0.128,0.128-0.336,0-0.465c-0.129-0.128-0.335-0.128-0.465,0l-0.926,0.927l-0.926-0.927c-0.128-0.128-0.337-0.128-0.465,0   c-0.129,0.128-0.129,0.336,0,0.465l0.926,0.926l-0.926,0.926C55.417,23.093,55.417,23.3,55.546,23.429z"/><path d="M31.491,32.543l-0.899,0.897c-0.128,0.129-0.128,0.336,0,0.464c0.063,0.064,0.148,0.096,0.232,0.096   c0.083,0,0.167-0.032,0.232-0.096l0.898-0.898l0.898,0.898c0.065,0.064,0.148,0.096,0.232,0.096c0.084,0,0.168-0.032,0.232-0.096   c0.128-0.128,0.128-0.335,0-0.464l-0.899-0.897l0.899-0.899c0.128-0.128,0.128-0.336,0-0.464c-0.128-0.128-0.336-0.128-0.465,0   l-0.898,0.899l-0.898-0.899c-0.128-0.128-0.336-0.128-0.464,0c-0.128,0.128-0.128,0.335,0,0.464L31.491,32.543z"/><path d="M37.967,33.905c0.064,0.064,0.149,0.096,0.232,0.096c0.084,0,0.168-0.032,0.232-0.096l0.898-0.898l0.899,0.898   c0.064,0.064,0.148,0.096,0.232,0.096c0.084,0,0.168-0.032,0.233-0.096c0.128-0.128,0.128-0.335,0-0.464l-0.899-0.897l0.899-0.899   c0.128-0.128,0.128-0.336,0-0.464c-0.129-0.128-0.337-0.128-0.465,0l-0.899,0.899l-0.898-0.899c-0.128-0.128-0.335-0.128-0.464,0   c-0.128,0.128-0.128,0.335,0,0.464l0.898,0.899l-0.898,0.897C37.839,33.57,37.839,33.777,37.967,33.905z"/><path d="M45.253,33.905c0.064,0.064,0.148,0.096,0.232,0.096c0.083,0,0.168-0.032,0.232-0.096l0.899-0.898l0.897,0.898   c0.064,0.064,0.148,0.096,0.232,0.096c0.084,0,0.168-0.032,0.232-0.096c0.128-0.128,0.128-0.335,0-0.464l-0.897-0.897l0.897-0.899   c0.128-0.128,0.128-0.336,0-0.464c-0.128-0.128-0.336-0.128-0.464,0l-0.897,0.899l-0.899-0.899c-0.128-0.128-0.336-0.128-0.464,0   c-0.128,0.128-0.128,0.335,0,0.464l0.898,0.899l-0.898,0.897C45.125,33.57,45.125,33.777,45.253,33.905z"/><path d="M52.636,33.905c0.064,0.064,0.148,0.096,0.232,0.096s0.168-0.032,0.232-0.096L54,33.007l0.896,0.898   c0.064,0.064,0.148,0.096,0.231,0.096c0.086,0,0.168-0.032,0.234-0.096c0.126-0.128,0.126-0.335,0-0.464l-0.899-0.897l0.899-0.899   c0.126-0.128,0.126-0.336,0-0.464c-0.13-0.128-0.338-0.128-0.466,0L54,32.079l-0.899-0.899c-0.13-0.128-0.338-0.128-0.465,0   c-0.127,0.128-0.127,0.335,0,0.464l0.897,0.899l-0.897,0.897C52.509,33.57,52.509,33.777,52.636,33.905z"/><path d="M59.77,33.905c0.064,0.064,0.148,0.096,0.231,0.096c0.085,0,0.17-0.032,0.234-0.096l0.896-0.898l0.9,0.898   c0.064,0.064,0.147,0.096,0.231,0.096s0.168-0.032,0.231-0.096c0.128-0.128,0.128-0.335,0-0.464l-0.896-0.897l0.896-0.899   c0.128-0.128,0.128-0.336,0-0.464c-0.128-0.128-0.335-0.128-0.463,0l-0.9,0.899l-0.896-0.899c-0.129-0.128-0.337-0.128-0.466,0   c-0.126,0.128-0.126,0.335,0,0.464l0.899,0.899l-0.899,0.897C59.644,33.57,59.644,33.777,59.77,33.905z"/><path d="M66.703,33.905c0.063,0.064,0.147,0.096,0.231,0.096s0.169-0.032,0.233-0.096l0.898-0.898l0.899,0.898   c0.062,0.064,0.146,0.096,0.231,0.096c0.083,0,0.167-0.032,0.232-0.096c0.125-0.128,0.125-0.335,0-0.464l-0.898-0.897l0.898-0.899   c0.125-0.128,0.125-0.336,0-0.464c-0.13-0.128-0.339-0.128-0.464,0l-0.899,0.899l-0.898-0.899c-0.127-0.128-0.337-0.128-0.465,0   c-0.128,0.128-0.128,0.335,0,0.464l0.898,0.899l-0.898,0.897C66.575,33.57,66.575,33.777,66.703,33.905z"/><path d="M34.274,28.606c0.064,0.064,0.148,0.096,0.232,0.096s0.168-0.032,0.232-0.096l0.898-0.898l0.899,0.898   c0.064,0.064,0.148,0.096,0.232,0.096S36.936,28.67,37,28.606c0.128-0.128,0.128-0.336,0-0.464l-0.898-0.898L37,26.346   c0.128-0.128,0.128-0.336,0-0.464c-0.128-0.128-0.336-0.128-0.464,0l-0.899,0.899l-0.898-0.899c-0.128-0.128-0.336-0.128-0.464,0   c-0.128,0.128-0.128,0.336,0,0.464l0.898,0.899l-0.898,0.898C34.146,28.271,34.146,28.478,34.274,28.606z"/><path d="M43.911,25.881l-0.899,0.899l-0.898-0.899c-0.128-0.128-0.336-0.128-0.463,0c-0.129,0.128-0.129,0.336,0,0.464l0.897,0.899   l-0.897,0.898c-0.129,0.128-0.129,0.335,0,0.464c0.063,0.064,0.147,0.096,0.231,0.096s0.168-0.032,0.232-0.096l0.898-0.898   l0.899,0.898c0.064,0.064,0.148,0.096,0.232,0.096s0.168-0.032,0.231-0.096c0.128-0.128,0.128-0.336,0-0.464l-0.898-0.898   l0.898-0.899c0.128-0.128,0.128-0.336,0-0.464S44.04,25.753,43.911,25.881z"/><path d="M51.659,25.881c-0.128-0.128-0.336-0.128-0.464,0l-0.899,0.899l-0.897-0.899c-0.128-0.128-0.337-0.128-0.464,0   c-0.128,0.128-0.128,0.336,0,0.464l0.898,0.899l-0.898,0.898c-0.128,0.128-0.128,0.335,0,0.464   c0.064,0.064,0.148,0.096,0.232,0.096c0.085,0,0.169-0.032,0.232-0.096l0.897-0.898l0.899,0.898   c0.064,0.064,0.148,0.096,0.232,0.096c0.083,0,0.167-0.032,0.231-0.096c0.128-0.128,0.128-0.336,0-0.464l-0.898-0.898l0.898-0.899   C51.787,26.218,51.787,26.01,51.659,25.881z"/><path d="M56.782,25.881c-0.127-0.128-0.335-0.128-0.464,0c-0.128,0.128-0.128,0.336,0,0.464l0.899,0.899l-0.899,0.898   c-0.128,0.128-0.128,0.335,0,0.464c0.064,0.064,0.147,0.096,0.232,0.096c0.083,0,0.167-0.032,0.231-0.096l0.898-0.898l0.899,0.898   c0.064,0.064,0.147,0.096,0.232,0.096c0.083,0,0.167-0.032,0.23-0.096c0.13-0.128,0.13-0.336,0-0.464l-0.898-0.898l0.898-0.899   c0.13-0.128,0.13-0.336,0-0.464c-0.128-0.128-0.334-0.128-0.463,0l-0.899,0.899L56.782,25.881z"/><path d="M63.451,28.606c0.065,0.064,0.148,0.096,0.234,0.096c0.083,0,0.168-0.032,0.231-0.096l0.896-0.898l0.899,0.898   c0.064,0.064,0.148,0.096,0.232,0.096s0.168-0.032,0.231-0.096c0.129-0.128,0.129-0.336,0-0.464l-0.896-0.898l0.896-0.899   c0.129-0.128,0.129-0.336,0-0.464c-0.126-0.128-0.335-0.128-0.464,0l-0.899,0.899l-0.896-0.899c-0.128-0.128-0.337-0.128-0.466,0   c-0.127,0.128-0.127,0.336,0,0.464l0.9,0.899l-0.9,0.898C63.324,28.271,63.324,28.478,63.451,28.606z"/><path d="M44.512,53.626h-0.715c-0.182,0-0.328,0.146-0.328,0.328c0,0.18,0.146,0.328,0.328,0.328h0.715   c0.181,0,0.327-0.148,0.327-0.328C44.839,53.771,44.693,53.626,44.512,53.626z"/><path d="M41.637,53.626H30.883c-1.681,0-3.131-0.52-3.979-1.422c-0.69-0.735-1-1.725-0.924-2.945   c0.011-0.18-0.125-0.335-0.307-0.348c-0.193-0.02-0.336,0.126-0.349,0.307c-0.089,1.408,0.282,2.563,1.101,3.436   c0.972,1.035,2.595,1.629,4.458,1.629h10.754c0.183,0,0.329-0.148,0.329-0.328C41.966,53.771,41.82,53.626,41.637,53.626z"/><path d="M25.664,47.496c0.019,0.004,0.037,0.006,0.057,0.006c0.156,0,0.295-0.112,0.322-0.271l0.067-0.383   c0.032-0.179-0.088-0.349-0.267-0.379c-0.18-0.037-0.349,0.088-0.38,0.267l-0.066,0.383C25.365,47.297,25.485,47.466,25.664,47.496   z"/><path d="M33.206,65.186c0.174,0.027,0.348-0.085,0.382-0.264c0.221-1.209,1.185-2.161,2.398-2.369   c0.777-0.134,1.558,0.043,2.2,0.498c0.642,0.454,1.068,1.131,1.201,1.907c0.03,0.175,0.045,0.361,0.043,0.553   c-0.001,0.181,0.143,0.33,0.324,0.332c0.001,0,0.002,0,0.004,0c0.18,0,0.327-0.145,0.329-0.325   c0.001-0.231-0.016-0.458-0.053-0.671c-0.162-0.948-0.684-1.776-1.469-2.332c-0.786-0.555-1.742-0.773-2.688-0.611   c-1.485,0.255-2.664,1.42-2.935,2.901C32.908,64.982,33.027,65.153,33.206,65.186z"/><path d="M60.574,65.843c0.002,0,0.002,0,0.003,0c0.183-0.004,0.327-0.152,0.325-0.332c-0.001-0.189,0.013-0.373,0.042-0.553   c0.133-0.776,0.562-1.453,1.202-1.907c0.643-0.455,1.424-0.629,2.198-0.498c1.216,0.208,2.178,1.16,2.399,2.369   c0.035,0.179,0.208,0.293,0.382,0.264c0.178-0.032,0.298-0.203,0.265-0.381c-0.271-1.481-1.448-2.646-2.935-2.901   c-0.946-0.162-1.902,0.057-2.688,0.611c-0.785,0.556-1.308,1.384-1.469,2.33c-0.039,0.219-0.057,0.444-0.053,0.673   C60.248,65.698,60.395,65.843,60.574,65.843z"/><path d="M41.125,81.129c-0.181,0.007-0.324,0.157-0.319,0.337c0.001,0.049,0.093,4.646-3.482,5.771   c-0.174,0.053-0.27,0.236-0.215,0.409c0.044,0.142,0.173,0.23,0.313,0.23c0.032,0,0.065-0.003,0.097-0.016   c4.054-1.271,3.944-6.363,3.943-6.414C41.458,81.267,41.302,81.142,41.125,81.129z"/><path d="M37.168,81.553c-0.163-0.021-0.344,0.1-0.37,0.279c-0.004,0.029-0.433,2.902-3.092,3.434   c-0.178,0.036-0.294,0.211-0.258,0.388c0.031,0.156,0.167,0.265,0.321,0.265c0.022,0,0.043-0.002,0.065-0.009   c3.112-0.62,3.609-3.953,3.614-3.986C37.474,81.742,37.348,81.577,37.168,81.553z"/><path d="M33.609,80.995c-0.155-0.091-0.357-0.041-0.45,0.117c-0.012,0.017-1.173,1.956-2.477,1.475   c-0.167-0.064-0.358,0.023-0.422,0.194c-0.063,0.169,0.023,0.358,0.193,0.421c0.228,0.086,0.448,0.121,0.661,0.121   c1.478,0,2.558-1.791,2.609-1.878C33.817,81.29,33.765,81.088,33.609,80.995z"/><path d="M45.094,81.285c-0.179,0.028-0.301,0.195-0.271,0.375c0.008,0.047,0.741,4.779-2.1,6.617   c-0.152,0.098-0.196,0.301-0.097,0.452c0.063,0.098,0.169,0.15,0.275,0.15c0.062,0,0.125-0.017,0.179-0.053   c3.197-2.067,2.424-7.062,2.389-7.271C45.442,81.376,45.267,81.252,45.094,81.285z"/><path d="M62.158,87.415c-3.585-1.125-3.69-5.647-3.69-5.691c-0.001-0.18-0.148-0.325-0.328-0.325c0,0-0.002,0-0.005,0   c-0.181,0.003-0.325,0.152-0.323,0.333c0,0.052,0.106,5.042,4.15,6.312c0.033,0.009,0.066,0.014,0.099,0.014   c0.139,0,0.27-0.091,0.313-0.229C62.428,87.653,62.332,87.469,62.158,87.415z"/><path d="M66.944,85.266c-2.686-0.535-3.603-3.426-3.613-3.454c-0.053-0.174-0.234-0.275-0.409-0.219   c-0.173,0.054-0.271,0.237-0.218,0.408c0.042,0.136,1.034,3.295,4.111,3.908c0.021,0.007,0.042,0.009,0.064,0.009   c0.152,0,0.29-0.108,0.321-0.265C67.236,85.477,67.123,85.302,66.944,85.266z"/><path d="M70.082,82.565c-0.012,0-0.034,0.002-0.055,0.002c-1.707,0-2.499-1.389-2.53-1.447c-0.09-0.159-0.286-0.217-0.445-0.129   c-0.159,0.086-0.219,0.287-0.131,0.443c0.039,0.074,1.001,1.788,3.106,1.788c0.021,0,0.041,0,0.06,0   c0.182-0.003,0.327-0.152,0.323-0.332C70.409,82.71,70.26,82.565,70.082,82.565z"/><path d="M37.386,68.343c-0.129-0.129-0.338-0.129-0.464,0c-0.129,0.13-0.127,0.338,0.001,0.466l0.193,0.193   c0.064,0.062,0.148,0.095,0.231,0.095c0.084,0,0.168-0.033,0.233-0.097c0.128-0.129,0.126-0.337-0.001-0.464L37.386,68.343z"/><path d="M39.817,68.924c-0.129,0.125-0.129,0.334,0,0.462l0.192,0.194c0.064,0.063,0.148,0.096,0.232,0.096   c0.083,0,0.168-0.032,0.232-0.096c0.128-0.129,0.128-0.336,0-0.465l-0.193-0.191C40.153,68.793,39.945,68.793,39.817,68.924z"/><path d="M35.409,69.841c-0.128-0.131-0.337-0.13-0.464-0.002c-0.128,0.128-0.128,0.335-0.001,0.462l0.193,0.194   c0.063,0.065,0.148,0.098,0.232,0.098s0.168-0.032,0.232-0.098c0.129-0.126,0.129-0.334,0.001-0.463L35.409,69.841z"/><path d="M32.773,68.71c0.064,0.064,0.149,0.097,0.233,0.097s0.168-0.032,0.232-0.097c0.128-0.128,0.128-0.335,0-0.463l-0.193-0.192   c-0.128-0.129-0.336-0.129-0.464,0c-0.129,0.129-0.129,0.335,0,0.463L32.773,68.71z"/><path d="M42.953,68.47c0.065,0.064,0.149,0.097,0.233,0.097c0.083,0,0.168-0.032,0.231-0.097c0.128-0.128,0.128-0.336,0.001-0.464   l-0.193-0.194c-0.128-0.128-0.337-0.126-0.464,0c-0.128,0.128-0.128,0.336-0.001,0.464L42.953,68.47z"/><path d="M62.964,68.343l-0.191,0.193c-0.129,0.129-0.129,0.335-0.002,0.464c0.063,0.063,0.149,0.097,0.234,0.097   c0.083,0,0.167-0.033,0.229-0.095l0.194-0.193c0.128-0.128,0.128-0.337,0-0.466S63.091,68.216,62.964,68.343z"/><path d="M60.109,69.676c0.083,0,0.166-0.032,0.23-0.096l0.193-0.194c0.131-0.128,0.131-0.335,0.001-0.462   c-0.128-0.131-0.337-0.129-0.463-0.003l-0.194,0.194c-0.128,0.128-0.128,0.336-0.002,0.465   C59.938,69.644,60.024,69.676,60.109,69.676z"/><path d="M64.941,69.841l-0.194,0.194c-0.125,0.128-0.125,0.334,0.004,0.463c0.064,0.062,0.148,0.095,0.23,0.095   c0.086,0,0.169-0.032,0.233-0.099l0.191-0.193c0.129-0.127,0.127-0.337-0.002-0.462C65.274,69.71,65.067,69.711,64.941,69.841z"/><path d="M67.113,68.247c-0.128,0.128-0.128,0.335,0,0.463c0.064,0.064,0.147,0.097,0.232,0.097c0.083,0,0.168-0.032,0.231-0.097   l0.192-0.192c0.129-0.128,0.129-0.334,0-0.463c-0.127-0.129-0.336-0.129-0.464,0L67.113,68.247z"/><path d="M57.165,68.566c0.085,0,0.17-0.032,0.234-0.097l0.192-0.194c0.129-0.128,0.129-0.336-0.002-0.464   c-0.126-0.126-0.335-0.128-0.463,0l-0.194,0.194c-0.128,0.128-0.128,0.336,0.002,0.464C56.997,68.534,57.082,68.566,57.165,68.566z   "/><path d="M48.536,63.639c0.065,0.065,0.149,0.097,0.233,0.097c0.083,0,0.168-0.031,0.232-0.097c0.128-0.128,0.128-0.337,0-0.465   l-0.18-0.179c-0.128-0.127-0.335-0.127-0.464,0c-0.127,0.129-0.127,0.335,0,0.464L48.536,63.639z"/><path d="M49.846,62.09c0.064,0.063,0.149,0.096,0.232,0.096c0.084,0,0.167-0.032,0.232-0.096c0.128-0.129,0.128-0.336,0-0.464   l-0.179-0.181c-0.128-0.129-0.337-0.129-0.465,0c-0.128,0.128-0.128,0.337,0,0.464L49.846,62.09z"/><path d="M51.216,63.818c0.064,0.064,0.147,0.096,0.232,0.096c0.084,0,0.168-0.031,0.232-0.096c0.129-0.128,0.129-0.336,0-0.464   l-0.18-0.181c-0.129-0.128-0.336-0.128-0.465,0c-0.128,0.128-0.128,0.337,0,0.465L51.216,63.818z"/><path d="M49.316,82.337c-0.175,0.043-0.282,0.224-0.237,0.397c0.008,0.037,0.895,3.66-1.265,6.675   c-0.105,0.148-0.072,0.353,0.076,0.459c0.058,0.04,0.125,0.062,0.19,0.062c0.103,0,0.203-0.048,0.268-0.138   c2.336-3.26,1.409-7.058,1.367-7.218C49.671,82.397,49.494,82.289,49.316,82.337z"/><path d="M55.976,88.721c-2.365-1.449-2.182-6.391-2.178-6.441c0.007-0.181-0.135-0.332-0.315-0.34   c-0.194-0.036-0.336,0.131-0.344,0.312c-0.009,0.22-0.201,5.376,2.492,7.03c0.055,0.034,0.113,0.049,0.174,0.049   c0.108,0,0.218-0.057,0.279-0.156C56.179,89.02,56.131,88.817,55.976,88.721z"/></g></svg>